<?xml version="1.0" encoding="utf-8"?>
<!-- Generator: Adobe Illustrator 23.0.3, SVG Export Plug-In . SVG Version: 6.00 Build 0)  -->
<svg version="1.1" id="Capa_1" xmlns="http://www.w3.org/2000/svg" xmlns:xlink="http://www.w3.org/1999/xlink" x="0px" y="0px"
	 viewBox="0 0 108 37" style="enable-background:new 0 0 108 37;" xml:space="preserve">
<style type="text/css">
	.st0{fill:#8ABEFF;}
	.st1{fill:#B86FE0;}
	.st2{fill:#4AFF4F;}
	.st3{fill:#FF4A7D;}
	.st4{fill:#AABAFF;}
</style>
<g id="Page-1">
	<g>
		<path class="st0" d="M37.9,20.2v-6.3c0-0.4,0.1-0.7,0.2-0.9s0.3-0.4,0.5-0.4c0.2,0,0.3,0.1,0.5,0.4c0.1,0.3,0.2,0.6,0.2,0.9v18.3
			c0,0.4-0.1,0.7-0.2,0.9s-0.3,0.4-0.5,0.4c-0.2,0-0.4-0.1-0.5-0.4s-0.2-0.6-0.2-0.9v-0.6c-0.7,1.3-1.3,1.9-1.8,1.9H35
			c-0.5,0-0.9-0.4-1.4-1.2L33,31.5c-0.1-0.2-0.2-0.6-0.4-1.2c-0.1-0.6-0.2-1.1-0.2-1.6v-5.4c0-0.6,0.1-1.2,0.2-1.7s0.3-1,0.4-1.3
			l0.6-0.9c0.4-0.7,0.9-1,1.4-1h1c0.5,0,1,0.4,1.4,1.1L37.9,20.2z M36,21h-0.9c-0.2,0-0.4,0.1-0.5,0.4l-0.4,0.7
			c-0.1,0.3-0.2,0.6-0.2,1v5.6c0,0.4,0.1,0.7,0.3,1l0.4,0.7c0.1,0.2,0.3,0.4,0.4,0.4h1.1c0.1,0,0.3-0.2,0.5-0.5l1.1-1.7
			c0.2-0.3,0.3-0.7,0.3-1.1v-2.9c0-0.6-0.1-1.1-0.3-1.4l-1.1-1.8C36.4,21.1,36.2,21,36,21z"/>
		<path class="st0" d="M45.6,30.9l2.3-2.8v-8.4c0-0.4,0.1-0.7,0.2-1c0.1-0.3,0.3-0.4,0.5-0.4s0.3,0.1,0.5,0.4c0.1,0.3,0.2,0.6,0.2,1
			v12.6c0,0.4-0.1,0.7-0.2,0.9c-0.1,0.3-0.3,0.4-0.5,0.4s-0.3-0.1-0.5-0.4c-0.1-0.3-0.2-0.6-0.2-0.9v-1l-1.2,1.5
			c-0.5,0.6-0.9,0.9-1.4,0.9h-0.6c-0.5,0-1-0.4-1.4-1.1c-0.4-0.8-0.6-1.7-0.6-2.8l-0.2-10c0-0.3,0.1-0.7,0.2-0.9
			c0.1-0.3,0.3-0.4,0.5-0.4c0.2,0,0.3,0.1,0.5,0.4s0.2,0.6,0.2,0.9l0.2,9.8c0,0.9,0.3,1.4,0.8,1.4H45.6z"/>
		<path class="st0" d="M58.4,33.6h-2.9c-0.5,0-0.9-0.3-1.3-0.9L53,30.4c-0.4-0.7-0.6-1.6-0.6-2.8v-3.5c0-1.1,0.2-2.1,0.7-2.9l1.2-2
			c0.4-0.6,0.8-0.9,1.2-0.9h3c0.2,0,0.3,0.1,0.5,0.4s0.2,0.6,0.2,0.9c0,0.4-0.1,0.7-0.2,0.9S58.6,21,58.4,21h-2.9
			c-0.2,0-0.4,0.1-0.5,0.4L54,23.2c-0.2,0.3-0.3,0.7-0.3,1.2v3.2c0,0.3,0.1,0.6,0.2,0.9l1.2,2c0.1,0.3,0.3,0.4,0.6,0.4h2.8
			c0.2,0,0.3,0.1,0.5,0.4c0.1,0.3,0.2,0.6,0.2,0.9s-0.1,0.7-0.2,0.9C58.8,33.4,58.6,33.6,58.4,33.6z"/>
		<path class="st0" d="M64.2,24h2.6c0.1,0,0.4,0.1,0.6,0.2l0-1.9c0-0.4-0.1-0.7-0.2-0.9C67.1,21.1,67,21,66.8,21h-2.6
			c-0.2,0-0.3-0.1-0.5-0.4c-0.1-0.3-0.2-0.6-0.2-0.9c0-0.4,0.1-0.7,0.2-0.9s0.3-0.4,0.5-0.4h2.6c0.6,0,1,0.4,1.4,1.2
			c0.4,0.8,0.6,1.7,0.6,2.8l0.2,9.9c0,0.4-0.1,0.7-0.2,0.9c-0.1,0.3-0.3,0.4-0.5,0.4c-0.2,0-0.4-0.1-0.5-0.4
			c-0.1-0.3-0.2-0.6-0.2-0.9l-1.1,1.3h-2.3c-0.6,0-1-0.4-1.4-1.2c-0.4-0.8-0.6-1.7-0.6-2.8V28c0-1.1,0.2-2,0.6-2.8
			C63.2,24.4,63.7,24,64.2,24z M67.6,29.2l0-1.1c0-0.4-0.1-0.7-0.2-0.9c-0.1-0.3-0.3-0.4-0.5-0.4h-2.7c-0.2,0-0.3,0.1-0.5,0.4
			c-0.1,0.3-0.2,0.6-0.2,0.9v1.5c0,0.4,0.1,0.7,0.2,0.9c0.1,0.3,0.3,0.4,0.5,0.4h1.9L67.6,29.2z"/>
		<path class="st0" d="M73.5,32v5.9c0,0.4-0.1,0.7-0.2,1c-0.1,0.3-0.3,0.4-0.5,0.4c-0.2,0-0.3-0.1-0.5-0.4c-0.1-0.3-0.2-0.6-0.2-1
			V19c0-0.4,0.1-0.7,0.2-0.9c0.1-0.3,0.3-0.4,0.5-0.4c0.2,0,0.3,0.1,0.5,0.4c0.1,0.3,0.2,0.6,0.2,0.9v0.9c0.7-1.4,1.3-2.1,1.9-2.1
			h0.3c0.5,0,0.9,0.3,1.3,1l1.1,1.9c0.5,0.8,0.7,1.9,0.7,3.2V28c0,1.3-0.3,2.4-0.8,3.3L77,33.2c-0.4,0.7-0.8,1-1.4,1h-0.3
			c-0.5,0-1-0.4-1.3-1.1L73.5,32z M75.4,31.5h0.3c0.2,0,0.3-0.2,0.5-0.5l1-1.8c0.2-0.3,0.3-0.6,0.3-1.1v-4.3c0-0.4-0.1-0.8-0.3-1.1
			l-1.1-1.9c-0.1-0.2-0.3-0.3-0.4-0.3h-0.4c-0.1,0-0.3,0.2-0.6,0.7l-1,2c-0.2,0.3-0.3,0.7-0.3,1.2v3.4c0,0.4,0.1,0.8,0.3,1.2l1,1.9
			C75,31.2,75.2,31.5,75.4,31.5z"/>
		<path class="st0" d="M88.8,23.3v3.2c0,0.4-0.1,0.7-0.2,0.9c-0.1,0.3-0.3,0.4-0.5,0.4h-4.8v0.8c0,0.5,0.1,0.8,0.3,1.2l0.4,0.6
			c0.2,0.3,0.4,0.5,0.6,0.5h3.5c0.2,0,0.3,0.1,0.5,0.4c0.1,0.3,0.2,0.6,0.2,0.9c0,0.4-0.1,0.7-0.2,0.9c-0.1,0.3-0.3,0.4-0.5,0.4
			h-3.5c-0.2,0-0.5-0.1-0.7-0.3s-0.4-0.4-0.6-0.6l-0.6-1c-0.2-0.3-0.3-0.7-0.5-1.2c-0.1-0.5-0.2-1-0.2-1.5v-6.1
			c0-0.3,0.1-0.8,0.2-1.4c0.1-0.6,0.3-1,0.5-1.4l0.6-0.9c0.4-0.6,0.8-0.9,1.2-0.9h1.9c0.5,0,0.9,0.4,1.3,1.2l0.5,0.9
			C88.6,21.1,88.8,22,88.8,23.3z M83.4,23.1v2.1h4.1v-1.8c0-0.5-0.1-0.9-0.2-1.1l-0.4-0.7c-0.2-0.3-0.4-0.5-0.5-0.5h-1.7
			c-0.2,0-0.4,0.1-0.6,0.4l-0.4,0.6C83.4,22.3,83.4,22.7,83.4,23.1z"/>
	</g>
	<g>
		<path class="st1" d="M28.7,6.4H9.3v10.1h8.4c0.7,0,1.4,0.2,1.9,0.6c0.5,0.4,0.8,0.9,0.8,1.5c0,0.6-0.3,1.1-0.8,1.5
			c-0.5,0.4-1.2,0.6-1.9,0.6H9.3v10.2h19.5c0.7,0,1.4,0.2,1.9,0.6c0.5,0.4,0.8,0.9,0.8,1.5c0,0.6-0.3,1.1-0.8,1.5s-1.2,0.6-2,0.6
			H3.8v-33h24.9c0.8,0,1.4,0.2,2,0.6c0.6,0.4,0.8,0.9,0.8,1.5c0,0.6-0.3,1-0.8,1.5C30.1,6.2,29.5,6.4,28.7,6.4z"/>
	</g>
	<circle class="st2" cx="97" cy="10.7" r="3.8"/>
	<circle class="st3" cx="103.8" cy="17.9" r="3"/>
	<ellipse class="st4" cx="96.4" cy="20.9" rx="3.2" ry="3.9"/>
</g>
</svg>
